<?xml version="1.0" encoding="UTF-8" standalone="no"?>
<!-- Created with Inkscape (http://www.inkscape.org/) -->

<svg
   width="164"
   height="33"
   viewBox="0 0 43.39169 8.7312555"
   version="1.1"
   id="svg120681"
   xmlns="http://www.w3.org/2000/svg"
   xmlns:svg="http://www.w3.org/2000/svg">
  <defs
     id="defs120678" />
  <g
     id="bul1"
     class="bul">
    <path
       d="m 3.846456,5.36649 q 0,-0.991397 -0.315023,-1.496361 Q 3.21641,3.365166 2.600261,3.365166 q -0.620781,0 -0.940437,0.509596 -0.319656,0.504964 -0.319656,1.491728 0,0.982131 0.319656,1.491728 0.319656,0.509596 0.940437,0.509596 0.616149,0 0.931172,-0.504964 Q 3.846456,6.357887 3.846456,5.36649 Z M 1.340168,3.430023 Q 1.544007,3.050142 1.900725,2.846304 2.262075,2.642465 2.73461,2.642465 q 0.935804,0 1.473197,0.722701 0.537392,0.718067 0.537392,1.982793 0,1.283257 -0.542025,2.015223 -0.537393,0.727333 -1.47783,0.727333 -0.463269,0 -0.819987,-0.199206 Q 1.553272,7.68747 1.340168,7.302956 v 0.65321 H 0.4877525 V 0.747693 H 1.340168 Z"
       style="font-weight:normal;-inkscape-font-specification:monospace;stroke-width:0.0832897;stroke-opacity:0.9"
       id="path120885" />
    <path
       d="M 5.332149,5.991904 V 2.776813 h 0.852416 v 3.215091 q 0,0.699537 0.245533,1.028458 0.250165,0.328921 0.769027,0.328921 0.602251,0 0.921907,-0.421575 Q 8.440688,6.5015 8.440688,5.709309 V 2.776813 H 9.297736 V 7.956166 H 8.440688 V 7.177874 Q 8.213685,7.627245 7.819906,7.85888 7.43076,8.090515 6.907265,8.090515 q -0.796823,0 -1.18597,-0.518862 Q 5.332149,7.048158 5.332149,5.991904 Z"
       style="font-weight:normal;-inkscape-font-specification:monospace;stroke-width:0.0832897;stroke-opacity:0.9"
       id="path120887" />
    <path
       d="m 11.04792,6.075292 q 0,0.574454 0.208471,0.866314 0.213104,0.29186 0.625414,0.29186 h 0.996029 v 0.7227 h -1.079418 q -0.764394,0 -1.18597,-0.491065 Q 10.195504,6.974035 10.195504,6.075292 V 1.363841 H 8.828859 V 0.696733 h 2.219061 z"
       style="font-weight:normal;-inkscape-font-specification:monospace;stroke-width:0.0832897;stroke-opacity:0.9"
       id="path120889" />
  </g>
  <path
     d="m 12.30943,4.426053 q 0,-0.574454 0.398412,-0.968233 0.398412,-0.398412 0.977499,-0.398412 0.574454,0 0.972865,0.398412 0.403045,0.398411 0.403045,0.968233 0,0.574454 -0.403045,0.977498 -0.403044,0.398412 -0.982131,0.398412 -0.574454,0 -0.972866,-0.393779 Q 12.30943,5.009772 12.30943,4.426053 Z"
     style="font-weight:normal;-inkscape-font-specification:monospace;stroke-width:0.0832897;stroke-opacity:0.9"
     id="d1"
     class="d" />
  <g
     id="bul2"
     class="bul">
    <path
       d="m 19.483888,5.36649 q 0,-0.991397 -0.315024,-1.496361 -0.315023,-0.504963 -0.931171,-0.504963 -0.620782,0 -0.940437,0.509596 Q 16.9776,4.379726 16.9776,5.36649 q 0,0.982131 0.319656,1.491728 0.319655,0.509596 0.940437,0.509596 0.616148,0 0.931171,-0.504964 0.315024,-0.504963 0.315024,-1.49636 z M 16.9776,3.430023 q 0.203838,-0.379881 0.560556,-0.583719 0.36135,-0.203839 0.833885,-0.203839 0.935804,0 1.473197,0.722701 0.537392,0.718067 0.537392,1.982793 0,1.283257 -0.542025,2.015223 -0.537392,0.727333 -1.47783,0.727333 -0.463269,0 -0.819987,-0.199206 Q 17.190704,7.68747 16.9776,7.302956 v 0.65321 H 16.125184 V 0.747693 H 16.9776 Z"
       style="font-weight:normal;-inkscape-font-specification:monospace;stroke-width:0.0832897;stroke-opacity:0.9"
       id="path120893" />
    <path
       d="M 20.969581,5.991904 V 2.776813 h 0.852416 v 3.215091 q 0,0.699537 0.245532,1.028458 0.250166,0.328921 0.769028,0.328921 0.60225,0 0.921906,-0.421575 Q 24.078119,6.5015 24.078119,5.709309 V 2.776813 h 0.857049 V 7.956166 H 24.078119 V 7.177874 q -0.227002,0.449371 -0.620781,0.681006 -0.389146,0.231635 -0.912641,0.231635 -0.796824,0 -1.18597,-0.518862 -0.389146,-0.523495 -0.389146,-1.579749 z"
       style="font-weight:normal;-inkscape-font-specification:monospace;stroke-width:0.0832897;stroke-opacity:0.9"
       id="path120895" />
    <path
       d="m 26.554654,6.075292 q 0,0.574454 0.208471,0.866314 0.213104,0.29186 0.625414,0.29186 h 0.996029 v 0.7227 H 27.30515 q -0.764394,0 -1.18597,-0.491065 Q 25.702238,6.974035 25.702238,6.075292 V 1.363841 H 24.335593 V 0.696733 h 2.219061 z"
       style="font-weight:normal;-inkscape-font-specification:monospace;stroke-width:0.0832897;stroke-opacity:0.9"
       id="path120897" />
  </g>
  <path
     d="m 27.816164,4.426053 q 0,-0.574454 0.398412,-0.968233 0.398412,-0.398412 0.977498,-0.398412 0.574455,0 0.972866,0.398412 0.403045,0.398411 0.403045,0.968233 0,0.574454 -0.403045,0.977498 -0.403044,0.398412 -0.982131,0.398412 -0.574454,0 -0.972866,-0.393779 -0.393779,-0.398412 -0.393779,-0.982131 z"
     style="font-weight:normal;-inkscape-font-specification:monospace;stroke-width:0.0832897;stroke-opacity:0.9"
     id="d2"
     class="d" />
  <g
     id="ian">
    <path
       d="m 31.046675,2.767548 h 2.182 v 4.526143 h 1.690934 V 7.956166 H 30.685325 V 7.293691 h 1.690934 V 3.430023 h -1.329584 z m 1.329584,-2.019855 h 0.852416 v 1.079418 h -0.852416 z"
       style="font-weight:normal;-inkscape-font-specification:monospace;stroke-width:0.0832897;stroke-opacity:0.9"
       id="path120901" />
    <path
       d="m 36.816112,5.347959 h -0.282594 q -0.745864,0 -1.125745,0.264064 -0.375248,0.259431 -0.375248,0.778293 0,0.467902 0.282594,0.727333 0.282594,0.259431 0.782925,0.259431 0.70417,0 1.107215,-0.486433 Q 37.608303,6.399581 37.612936,5.5379 V 5.347959 Z M 38.469984,4.995874 V 7.956166 H 37.612936 V 7.187139 q -0.273329,0.46327 -0.690272,0.685639 -0.41231,0.217737 -1.005295,0.217737 -0.792191,0 -1.264725,-0.444739 -0.472535,-0.449372 -0.472535,-1.199868 0,-0.866314 0.579087,-1.315686 0.583719,-0.449371 1.709464,-0.449371 h 1.144276 V 4.546503 q -0.0046,-0.620781 -0.315024,-0.898743 -0.31039,-0.282594 -0.991396,-0.282594 -0.435474,0 -0.880212,0.125082 -0.444739,0.125083 -0.866314,0.365983 V 3.003815 q 0.472535,-0.180675 0.903375,-0.268696 0.435474,-0.09265 0.843151,-0.09265 0.643944,0 1.097948,0.189941 0.458637,0.18994 0.741232,0.569821 0.176042,0.231635 0.250165,0.574454 0.07412,0.338187 0.07412,1.019193 z"
       style="font-weight:normal;-inkscape-font-specification:monospace;stroke-width:0.0832897;stroke-opacity:0.9"
       id="path120903" />
    <path
       d="m 42.832394,4.741076 v 3.21509 h -0.857049 v -3.21509 q 0,-0.699537 -0.245532,-1.028458 -0.245533,-0.328922 -0.769028,-0.328922 -0.597617,0 -0.921906,0.426208 Q 39.719223,4.23148 39.719223,5.02367 V 7.956166 H 38.866807 V 2.767548 h 0.852416 v 0.778293 q 0.227002,-0.444739 0.616148,-0.671741 0.389147,-0.231635 0.921907,-0.231635 0.792191,0 1.181337,0.523495 0.393779,0.518862 0.393779,1.575116 z"
       style="font-weight:normal;-inkscape-font-specification:monospace;stroke-width:0.0832897;stroke-opacity:0.9"
       id="path120905" />
  </g>
</svg>
