<?xml version="1.0" encoding="UTF-8" standalone="no"?>
<!-- Created with Inkscape (http://www.inkscape.org/) -->

<svg
   width="232"
   height="132"
   viewBox="0 0 61.383361 34.925001"
   version="1.1"
   id="svg120681"
   xmlns="http://www.w3.org/2000/svg"
   xmlns:svg="http://www.w3.org/2000/svg">
  <defs
     id="defs120678" />
  <g
     id="layer1">
    <g
       aria-label="bul"
       id="bul"
       style="font-weight:bold;font-size:19.1191px;line-height:125%;font-family:monospace;-inkscape-font-specification:'monospace Bold';text-align:end;letter-spacing:-1.94311px;word-spacing:0px;text-anchor:end;fill:#ff0000;stroke-width:0.477977px">
      <path
         d="m 17.28635,15.970425 q 0,-1.512351 -0.504117,-2.371217 -0.504117,-0.858865 -1.390989,-0.858865 -0.886872,0 -1.400325,0.858865 -0.513452,0.858866 -0.513452,2.371217 0,1.512351 0.513452,2.371217 0.513453,0.858865 1.400325,0.858865 0.886872,0 1.390989,-0.858865 0.504117,-0.858866 0.504117,-2.371217 z m -3.808883,-3.771541 q 0.504117,-0.868202 1.166937,-1.297635 0.672156,-0.438768 1.512351,-0.438768 1.857764,0 2.856662,1.418996 1.008234,1.418996 1.008234,4.070277 0,2.61394 -0.989563,4.051606 -0.989562,1.437667 -2.781978,1.437667 -0.942885,0 -1.643048,-0.457439 -0.700162,-0.45744 -1.129595,-1.362983 v 1.549693 H 10.751501 V 6.6442622 h 2.725966 z"
         id="path120866" />
      <path
         d="m 20.852133,17.520118 v -6.805579 h 2.735301 v 6.385481 q 0,1.129596 0.317407,1.615042 0.317407,0.485445 1.054911,0.485445 0.737505,0 1.148266,-0.653484 0.420098,-0.653485 0.420098,-1.829758 v -6.002726 h 2.735301 v 10.455759 h -2.735301 v -1.549693 q -0.289401,0.868201 -0.989563,1.344312 -0.690827,0.47611 -1.671054,0.47611 -1.49368,0 -2.259191,-0.989563 -0.756175,-0.989563 -0.756175,-2.931346 z"
         id="path120868" />
      <path
         d="M 30.379841,17.140408 V 9.0745372 H 27.607198 V 6.9740501 h 5.507944 V 17.140408 q 0,1.232286 0.382756,1.745738 0.382755,0.513452 1.297634,0.513452 h 2.184507 v 2.100488 h -2.950018 q -1.951119,0 -2.800649,-1.008234 -0.849531,-1.008234 -0.849531,-3.351444 z"
         id="path120870" />
    </g>
    <g
       aria-label="("
       id="brR"
       style="fill:#ff9955;stroke-width:0.678199px">
      <path
         d="M 11.714823,2.4231014 Q 9.9530856,5.4432218 9.0788402,8.4500961 8.217841,11.443724 8.217841,14.490337 q 0,3.033367 0.8609992,6.040241 0.8742454,3.006874 2.6359828,6.053487 H 9.5954398 Q 7.5952723,23.431483 6.6150577,20.451101 5.6348432,17.457473 5.6348432,14.490337 q 0,-2.95389 0.9802145,-5.9475179 0.9802146,-2.9936282 2.9803821,-6.1197177 z"
         style="font-weight:normal;-inkscape-font-specification:monospace"
         id="path120863" />
    </g>
    <g
       aria-label=")"
       id="brL"
       style="fill:#ff9955;stroke-width:0.678199px">
      <path
         d="m 37.615547,2.3989028 h 2.119383 q 2.000167,3.1260896 2.980382,6.1197178 0.980214,2.9936284 0.980214,5.9475174 0,2.980382 -0.980214,5.974011 -0.980215,2.993628 -2.980382,6.119717 h -2.119383 q 1.761737,-3.073105 2.622736,-6.079979 0.874245,-3.006874 0.874245,-6.013749 0,-3.02012 -0.874245,-6.0269943 -0.860999,-3.0068743 -2.622736,-6.0402409 z"
         style="font-weight:normal;-inkscape-font-specification:monospace"
         id="path120860" />
    </g>
    <path
       id="line"
       style="fill:#ff7f2a;stroke-width:0.678199px"
       d="m 41.975145,22.38612 c -0.141974,0.326822 -0.368576,0.848095 -0.528262,1.177218 h 18.917735 v -0.983566 z m -2.873595,1.170305 c 0.140582,-0.328481 0.394788,-0.826626 0.519583,-1.153948 L 9.7811046,22.579772 c 0.125448,0.327508 0.2570294,0.655355 0.3981384,0.983566 z m -31.2186574,0.0069 C 7.7234766,23.233806 7.5756076,22.906253 7.4338716,22.579738 H 0.91304357 l -0.01047,0.983567 z" />
    <g
       aria-label="2"
       id="cube"
       style="font-weight:bold;font-size:7.98016px;line-height:125%;font-family:monospace;-inkscape-font-specification:'monospace Bold';text-align:end;letter-spacing:-0.81104px;word-spacing:0px;text-anchor:end;fill:#ff2a2a;stroke-width:0.199504px">
      <path
         d="m 35.181442,9.1119669 h 2.673042 V 9.7743826 H 34.320302 V 9.1119669 q 0.728657,-0.7676228 1.274176,-1.3560037 0.545519,-0.588381 0.752036,-0.8299679 0.389657,-0.4753806 0.526036,-0.7676228 0.13638,-0.2961388 0.13638,-0.6039672 0,-0.4870703 -0.288346,-0.7637263 -0.284449,-0.2766559 -0.783209,-0.2766559 -0.354587,0 -0.744243,0.1285865 -0.389656,0.1285866 -0.826071,0.3896563 V 4.2373671 q 0.401345,-0.1909316 0.787105,-0.2883456 0.389656,-0.097414 0.767623,-0.097414 0.853347,0 1.37159,0.4558978 0.522139,0.4520013 0.522139,1.1884516 0,0.3740701 -0.175345,0.7481401 -0.171449,0.37407 -0.561105,0.8260712 -0.218207,0.2532766 -0.63514,0.7013813 -0.413035,0.4481047 -1.262486,1.3404175 z"
         style="font-weight:normal;-inkscape-font-specification:monospace"
         id="path120873" />
    </g>
    <g
       aria-label="+ian"
       id="ian"
       style="opacity:0.5;fill:#ff9955;stroke-width:0.196639px">
      <path
         d="m 46.057961,17.016529 v 1.705233 h 1.709074 v 0.652905 H 46.057961 V 21.0799 h -0.645223 v -1.705233 h -1.705233 v -0.652905 h 1.705233 v -1.705233 z"
         style="opacity:0.75"
         id="path120876" />
      <path
         d="m 47.566587,17.2124 h 1.80893 v 3.752281 h 1.401824 v 0.549208 h -3.510322 v -0.549208 h 1.401824 v -3.203073 h -1.102256 z m 1.102256,-1.674508 h 0.706674 v 0.894863 h -0.706674 z"
         style="font-weight:normal;-inkscape-font-specification:monospace"
         id="path120878" />
      <path
         d="m 52.85453,19.351623 h -0.234278 q -0.618339,0 -0.933269,0.218915 -0.31109,0.215074 -0.31109,0.645223 0,0.387902 0.234277,0.602977 0.234278,0.215074 0.649064,0.215074 0.583774,0 0.917907,-0.403264 0.334134,-0.407105 0.337974,-1.12146 v -0.157465 z m 1.371099,-0.291887 v 2.454153 h -0.710514 v -0.637542 q -0.226596,0.384062 -0.572251,0.568411 -0.341815,0.180509 -0.833414,0.180509 -0.656745,0 -1.048488,-0.368699 -0.391742,-0.37254 -0.391742,-0.994719 0,-0.718195 0.480076,-1.090735 0.483918,-0.37254 1.417187,-0.37254 h 0.948632 v -0.111378 q -0.0038,-0.514642 -0.261161,-0.745079 -0.257322,-0.234277 -0.821892,-0.234277 -0.361018,0 -0.729717,0.103696 -0.368699,0.103697 -0.718195,0.303409 v -0.706673 q 0.391743,-0.149784 0.74892,-0.222756 0.361018,-0.07681 0.698992,-0.07681 0.533845,0 0.910226,0.157465 0.380221,0.157465 0.614498,0.472395 0.145944,0.192031 0.207393,0.476237 0.06145,0.280365 0.06145,0.844935 z"
         style="font-weight:normal;-inkscape-font-specification:monospace"
         id="path120880" />
      <path
         d="m 57.769933,18.848502 v 2.665387 h -0.710514 v -2.665387 q 0,-0.579933 -0.203552,-0.852616 -0.203553,-0.272684 -0.637542,-0.272684 -0.49544,0 -0.764283,0.353337 -0.265002,0.349496 -0.265002,1.006241 v 2.431109 H 54.482367 V 17.2124 h 0.706673 v 0.645224 q 0.18819,-0.368699 0.510802,-0.55689 0.322611,-0.19203 0.764282,-0.19203 0.656745,0 0.979357,0.433989 0.326452,0.430149 0.326452,1.305809 z"
         style="font-weight:normal;-inkscape-font-specification:monospace"
         id="path120882" />
    </g>
    <g
       aria-label="bul•bul•ian"
       id="bulbulian"
       style=";stroke-width:0.0832897;stroke-opacity:.9">
      <path
         d="m 13.17712,29.327186 q 0,-0.991397 -0.315023,-1.496361 -0.315023,-0.504963 -0.931172,-0.504963 -0.620781,0 -0.940437,0.509596 -0.319656,0.504964 -0.319656,1.491728 0,0.982131 0.319656,1.491728 0.319656,0.509596 0.940437,0.509596 0.616149,0 0.931172,-0.504964 0.315023,-0.504963 0.315023,-1.49636 z m -2.506288,-1.936467 q 0.203839,-0.379881 0.560557,-0.583719 0.36135,-0.203839 0.833885,-0.203839 0.935804,0 1.473197,0.722701 0.537392,0.718067 0.537392,1.982793 0,1.283257 -0.542025,2.015223 -0.537393,0.727333 -1.47783,0.727333 -0.463269,0 -0.819987,-0.199206 -0.352085,-0.203839 -0.565189,-0.588353 v 0.65321 H 9.8184165 v -7.208473 h 0.8524155 z"
         style="font-weight:normal;-inkscape-font-specification:monospace"
         id="path120885" />
      <path
         d="m 14.662813,29.9526 v -3.215091 h 0.852416 V 29.9526 q 0,0.699537 0.245533,1.028458 0.250165,0.328921 0.769027,0.328921 0.602251,0 0.921907,-0.421575 0.319656,-0.426208 0.319656,-1.218399 V 26.737509 H 18.6284 v 5.179353 H 17.771352 V 31.13857 q -0.227003,0.449371 -0.620782,0.681006 -0.389146,0.231635 -0.912641,0.231635 -0.796823,0 -1.18597,-0.518862 -0.389146,-0.523495 -0.389146,-1.579749 z"
         style="font-weight:normal;-inkscape-font-specification:monospace"
         id="path120887" />
      <path
         d="m 20.378584,30.035988 q 0,0.574454 0.208471,0.866314 0.213104,0.29186 0.625414,0.29186 h 0.996029 v 0.7227 H 21.12908 q -0.764394,0 -1.18597,-0.491065 -0.416942,-0.491066 -0.416942,-1.389809 v -4.711451 h -1.366645 v -0.667108 h 2.219061 z"
         style="font-weight:normal;-inkscape-font-specification:monospace"
         id="path120889" />
      <path
         d="m 21.640094,28.386749 q 0,-0.574454 0.398412,-0.968233 0.398412,-0.398412 0.977499,-0.398412 0.574454,0 0.972865,0.398412 0.403045,0.398411 0.403045,0.968233 0,0.574454 -0.403045,0.977498 -0.403044,0.398412 -0.982131,0.398412 -0.574454,0 -0.972866,-0.393779 -0.393779,-0.398412 -0.393779,-0.982131 z"
         style="font-weight:normal;-inkscape-font-specification:monospace"
         id="path120891" />
      <path
         d="m 28.814552,29.327186 q 0,-0.991397 -0.315024,-1.496361 -0.315023,-0.504963 -0.931171,-0.504963 -0.620782,0 -0.940437,0.509596 -0.319656,0.504964 -0.319656,1.491728 0,0.982131 0.319656,1.491728 0.319655,0.509596 0.940437,0.509596 0.616148,0 0.931171,-0.504964 0.315024,-0.504963 0.315024,-1.49636 z m -2.506288,-1.936467 q 0.203838,-0.379881 0.560556,-0.583719 0.36135,-0.203839 0.833885,-0.203839 0.935804,0 1.473197,0.722701 0.537392,0.718067 0.537392,1.982793 0,1.283257 -0.542025,2.015223 -0.537392,0.727333 -1.47783,0.727333 -0.463269,0 -0.819987,-0.199206 -0.352084,-0.203839 -0.565188,-0.588353 v 0.65321 h -0.852416 v -7.208473 h 0.852416 z"
         style="font-weight:normal;-inkscape-font-specification:monospace"
         id="path120893" />
      <path
         d="m 30.300245,29.9526 v -3.215091 h 0.852416 V 29.9526 q 0,0.699537 0.245532,1.028458 0.250166,0.328921 0.769028,0.328921 0.60225,0 0.921906,-0.421575 0.319656,-0.426208 0.319656,-1.218399 v -2.932496 h 0.857049 v 5.179353 H 33.408783 V 31.13857 q -0.227002,0.449371 -0.620781,0.681006 -0.389146,0.231635 -0.912641,0.231635 -0.796824,0 -1.18597,-0.518862 -0.389146,-0.523495 -0.389146,-1.579749 z"
         style="font-weight:normal;-inkscape-font-specification:monospace"
         id="path120895" />
      <path
         d="m 35.885318,30.035988 q 0,0.574454 0.208471,0.866314 0.213104,0.29186 0.625414,0.29186 h 0.996029 v 0.7227 h -1.079418 q -0.764394,0 -1.18597,-0.491065 -0.416942,-0.491066 -0.416942,-1.389809 v -4.711451 h -1.366645 v -0.667108 h 2.219061 z"
         style="font-weight:normal;-inkscape-font-specification:monospace"
         id="path120897" />
      <path
         d="m 37.146828,28.386749 q 0,-0.574454 0.398412,-0.968233 0.398412,-0.398412 0.977498,-0.398412 0.574455,0 0.972866,0.398412 0.403045,0.398411 0.403045,0.968233 0,0.574454 -0.403045,0.977498 -0.403044,0.398412 -0.982131,0.398412 -0.574454,0 -0.972866,-0.393779 -0.393779,-0.398412 -0.393779,-0.982131 z"
         style="font-weight:normal;-inkscape-font-specification:monospace"
         id="path120899" />
      <path
         d="m 40.377339,26.728244 h 2.182 v 4.526143 h 1.690934 v 0.662475 h -4.234284 v -0.662475 h 1.690934 v -3.863668 h -1.329584 z m 1.329584,-2.019855 h 0.852416 v 1.079418 h -0.852416 z"
         style="font-weight:normal;-inkscape-font-specification:monospace"
         id="path120901" />
      <path
         d="m 46.146776,29.308655 h -0.282594 q -0.745864,0 -1.125745,0.264064 -0.375248,0.259431 -0.375248,0.778293 0,0.467902 0.282594,0.727333 0.282594,0.259431 0.782925,0.259431 0.70417,0 1.107215,-0.486433 0.403044,-0.491066 0.407677,-1.352747 v -0.189941 z m 1.653872,-0.352085 v 2.960292 H 46.9436 v -0.769027 q -0.273329,0.46327 -0.690272,0.685639 -0.41231,0.217737 -1.005295,0.217737 -0.792191,0 -1.264725,-0.444739 -0.472535,-0.449372 -0.472535,-1.199868 0,-0.866314 0.579087,-1.315686 0.583719,-0.449371 1.709464,-0.449371 H 46.9436 v -0.134348 q -0.0046,-0.620781 -0.315024,-0.898743 -0.31039,-0.282594 -0.991396,-0.282594 -0.435474,0 -0.880212,0.125082 -0.444739,0.125083 -0.866314,0.365983 v -0.852416 q 0.472535,-0.180675 0.903375,-0.268696 0.435474,-0.09265 0.843151,-0.09265 0.643944,0 1.097948,0.189941 0.458637,0.18994 0.741232,0.569821 0.176042,0.231635 0.250165,0.574454 0.07412,0.338187 0.07412,1.019193 z"
         style="font-weight:normal;-inkscape-font-specification:monospace"
         id="path120903" />
      <path
         d="m 52.163058,28.701772 v 3.21509 h -0.857049 v -3.21509 q 0,-0.699537 -0.245532,-1.028458 -0.245533,-0.328922 -0.769028,-0.328922 -0.597617,0 -0.921906,0.426208 -0.319656,0.421576 -0.319656,1.213766 v 2.932496 h -0.852416 v -5.188618 h 0.852416 v 0.778293 q 0.227002,-0.444739 0.616148,-0.671741 0.389147,-0.231635 0.921907,-0.231635 0.792191,0 1.181337,0.523495 0.393779,0.518862 0.393779,1.575116 z"
         style="font-weight:normal;-inkscape-font-specification:monospace"
         id="path120905" />
    </g>
  </g>
</svg>
