<?xml version="1.0" encoding="UTF-8" standalone="no"?>
<!-- Created with Inkscape (http://www.inkscape.org/) -->

<svg
   width="192"
   height="192"
   viewBox="0 0 50.800032 50.800008"
   version="1.1"
   id="svg120681"
   xmlns="http://www.w3.org/2000/svg"
   xmlns:svg="http://www.w3.org/2000/svg">
  <defs
     id="defs120678" />
  <g
     aria-label="b"
     id="text4240-5"
     style="font-weight:bold;font-size:19.1191px;line-height:125%;font-family:monospace;-inkscape-font-specification:'monospace Bold';text-align:end;letter-spacing:-1.94311px;word-spacing:0px;text-anchor:end;fill:#ff0000;stroke-width:0.477977px"
     transform="matrix(1.7068537,0,0,1.7068537,-1.5343149,-1.2332417)">
    <path
       d="m 14.68744,18.258046 q 0,-1.512351 -0.504117,-2.371217 -0.504117,-0.858866 -1.390989,-0.858866 -0.886873,0 -1.400325,0.858866 -0.513453,0.858866 -0.513453,2.371217 0,1.51235 0.513453,2.371216 0.513452,0.858866 1.400325,0.858866 0.886872,0 1.390989,-0.858866 0.504117,-0.858866 0.504117,-2.371216 z m -3.808884,-3.771542 q 0.504117,-0.868201 1.166938,-1.297634 0.672156,-0.438768 1.51235,-0.438768 1.857765,0 2.856663,1.418995 1.008234,1.418996 1.008234,4.070278 0,2.613939 -0.989563,4.051606 -0.989563,1.437667 -2.781979,1.437667 -0.942885,0 -1.643047,-0.45744 -0.700163,-0.457439 -1.129596,-1.362983 v 1.549693 H 8.152591 V 8.9318828 h 2.725965 z"
       id="path16410" />
  </g>
  <g
     aria-label="("
     id="text4240-0-4"
     style="font-weight:bold;font-size:27.1281px;line-height:125%;font-family:monospace;-inkscape-font-specification:'monospace Bold';text-align:end;letter-spacing:-2.75709px;word-spacing:0px;text-anchor:end;fill:#ff9955;stroke-width:0.678199px"
     transform="matrix(1.7068537,0,0,1.7068537,-1.5343149,-1.2332417)">
    <path
       d="M 8.9992282,3.4118633 Q 7.2374913,6.4319837 6.3632459,9.438858 q -0.8609992,2.993628 -0.8609992,6.040241 0,3.033366 0.8609992,6.040241 0.8742454,3.006874 2.6359823,6.053487 H 6.8798455 Q 4.879678,24.420245 3.8994635,21.439863 2.9192489,18.446235 2.9192489,15.479099 q 0,-2.95389 0.9802146,-5.947518 0.9802145,-2.9936282 2.980382,-6.1197177 z"
       style="font-weight:normal;-inkscape-font-specification:monospace"
       id="path16407" />
  </g>
  <g
     aria-label=")"
     id="text4240-0-1-2"
     style="font-weight:bold;font-size:27.1281px;line-height:125%;font-family:monospace;-inkscape-font-specification:'monospace Bold';text-align:end;letter-spacing:-2.75709px;word-spacing:0px;text-anchor:end;fill:#ff9955;stroke-width:0.678199px"
     transform="matrix(1.7068537,0,0,1.7068537,-1.5343149,-1.2332417)">
    <path
       d="m 16.054084,3.2419376 h 2.119383 q 2.000168,3.1260896 2.980382,6.1197177 0.980215,2.9936277 0.980215,5.9475177 0,2.980382 -0.980215,5.97401 -0.980214,2.993629 -2.980382,6.119718 h -2.119383 q 1.761737,-3.073105 2.622737,-6.079979 0.874245,-3.006874 0.874245,-6.013749 0,-3.02012 -0.874245,-6.0269945 -0.861,-3.0068743 -2.622737,-6.0402409 z"
       style="font-weight:normal;-inkscape-font-specification:monospace"
       id="path16404" />
  </g>
  <g
     aria-label="+"
     transform="matrix(1.6356087,0,0,1.781202,-1.8001315,-1.2332417)"
     id="text4240-5-4"
     style="font-weight:bold;font-size:17.2385px;line-height:125%;font-family:monospace;-inkscape-font-specification:'monospace Bold';text-align:end;letter-spacing:-1.75198px;word-spacing:0px;text-anchor:end;fill:#ff0000;stroke-width:0.430961px">
    <path
       d="m 27.01227,12.934092 v 3.619411 h 3.619412 v 2.003303 H 27.01227 v 3.636246 h -1.994885 v -3.636246 h -3.636246 v -2.003303 h 1.977335 1.658911 v -3.619411 z"
       id="path16380" />
  </g>
  <g
     aria-label="2"
     id="text4240-5-1"
     style="font-weight:bold;font-size:8.30215px;line-height:125%;font-family:monospace;-inkscape-font-specification:'monospace Bold';text-align:end;letter-spacing:-0.843763px;word-spacing:0px;text-anchor:end;fill:#ff0000;stroke-width:0.207554px"
     transform="matrix(1.7068537,0,0,1.7068537,-1.5343149,-1.2332417)">
    <path
       d="m 15.437609,11.438021 h 2.54983 v 1.053983 h -3.842987 v -1.021553 l 0.648605,-0.689143 Q 15.948386,9.5530109 16.195666,9.2692461 16.4997,8.9206206 16.633475,8.6530709 16.76725,8.3814673 16.76725,8.1179714 q 0,-0.4053784 -0.247281,-0.6242828 -0.243227,-0.2229581 -0.693197,-0.2229581 -0.320249,0 -0.721573,0.1297211 -0.397271,0.1256673 -0.831026,0.3688944 V 6.6545553 q 0.433755,-0.1580975 0.847241,-0.2391732 0.417539,-0.08513 0.798595,-0.08513 0.960747,0 1.508008,0.44997 0.551314,0.4459163 0.551314,1.220189 0,0.356733 -0.121613,0.6688744 -0.11756,0.3121414 -0.409432,0.6931971 -0.214851,0.2756573 -1.179651,1.2404574 -0.522939,0.522938 -0.831026,0.835081 z"
       id="path16401" />
  </g>
</svg>
